ISO-10303-21;
HEADER;
/* Generated by software containing ST-Developer
 * from STEP Tools, Inc. (www.steptools.com) 
 */
/* OPTION: using custom renumber hook */

FILE_DESCRIPTION(
/* description */ ('STEP AP242 Edition 2',
'CAx-IF Rec.Pracs.---Representation and Presentation of Product Manufa
cturing Information (PMI)---4.0---2014-10-13',
'CAx-IF Rec.Pracs.---3D Tessellated Geometry---0.4---2014-09-14','2;1',
'CAx-IF Rec.Pracs.---User Defined Attributes---1.5---2016-08-15'),
/* implementation_level */ '2;1');

FILE_NAME(
/* name */ 'Part Studio 3 - Part 3',
/* time_stamp */ '2026-09-20T07:46:26Z',
/* author */ (''),
/* organization */ (''),
/* preprocessor_version */ 'ST-DEVELOPER v20',
/* originating_system */ 'ONSHAPE BY PTC INC, 1.221',
/* authorisation */ '  ');

FILE_SCHEMA (('AP242_MANAGED_MODEL_BASED_3D_ENGINEERING_MIM_LF { 1 0 10303 442 3 1 4 }'));
ENDSEC;

DATA;
#10=SHAPE_REPRESENTATION_RELATIONSHIP('','',#287,#11);
#11=ADVANCED_BREP_SHAPE_REPRESENTATION('',(#285),#445);
#12=ORIENTED_EDGE('',*,*,#84,.T.);
#13=ORIENTED_EDGE('',*,*,#85,.T.);
#14=ORIENTED_EDGE('',*,*,#86,.F.);
#15=ORIENTED_EDGE('',*,*,#87,.T.);
#16=ORIENTED_EDGE('',*,*,#88,.T.);
#17=ORIENTED_EDGE('',*,*,#89,.T.);
#18=ORIENTED_EDGE('',*,*,#90,.F.);
#19=ORIENTED_EDGE('',*,*,#91,.F.);
#20=ORIENTED_EDGE('',*,*,#92,.F.);
#21=ORIENTED_EDGE('',*,*,#93,.T.);
#22=ORIENTED_EDGE('',*,*,#94,.T.);
#23=ORIENTED_EDGE('',*,*,#95,.F.);
#24=ORIENTED_EDGE('',*,*,#96,.F.);
#25=ORIENTED_EDGE('',*,*,#97,.T.);
#26=ORIENTED_EDGE('',*,*,#98,.T.);
#27=ORIENTED_EDGE('',*,*,#99,.F.);
#28=ORIENTED_EDGE('',*,*,#100,.T.);
#29=ORIENTED_EDGE('',*,*,#101,.F.);
#30=ORIENTED_EDGE('',*,*,#102,.F.);
#31=ORIENTED_EDGE('',*,*,#95,.T.);
#32=ORIENTED_EDGE('',*,*,#103,.T.);
#33=ORIENTED_EDGE('',*,*,#104,.T.);
#34=ORIENTED_EDGE('',*,*,#105,.F.);
#35=ORIENTED_EDGE('',*,*,#101,.T.);
#36=ORIENTED_EDGE('',*,*,#106,.F.);
#37=ORIENTED_EDGE('',*,*,#87,.F.);
#38=ORIENTED_EDGE('',*,*,#107,.T.);
#39=ORIENTED_EDGE('',*,*,#108,.T.);
#40=ORIENTED_EDGE('',*,*,#109,.F.);
#41=ORIENTED_EDGE('',*,*,#110,.F.);
#42=ORIENTED_EDGE('',*,*,#108,.F.);
#43=ORIENTED_EDGE('',*,*,#111,.T.);
#44=ORIENTED_EDGE('',*,*,#112,.F.);
#45=ORIENTED_EDGE('',*,*,#111,.F.);
#46=ORIENTED_EDGE('',*,*,#107,.F.);
#47=ORIENTED_EDGE('',*,*,#86,.T.);
#48=ORIENTED_EDGE('',*,*,#113,.F.);
#49=ORIENTED_EDGE('',*,*,#92,.T.);
#50=ORIENTED_EDGE('',*,*,#102,.T.);
#51=ORIENTED_EDGE('',*,*,#105,.T.);
#52=ORIENTED_EDGE('',*,*,#110,.T.);
#53=ORIENTED_EDGE('',*,*,#114,.T.);
#54=ORIENTED_EDGE('',*,*,#103,.F.);
#55=ORIENTED_EDGE('',*,*,#100,.F.);
#56=ORIENTED_EDGE('',*,*,#94,.F.);
#57=ORIENTED_EDGE('',*,*,#115,.T.);
#58=ORIENTED_EDGE('',*,*,#84,.F.);
#59=ORIENTED_EDGE('',*,*,#106,.T.);
#60=ORIENTED_EDGE('',*,*,#96,.T.);
#61=ORIENTED_EDGE('',*,*,#116,.T.);
#62=ORIENTED_EDGE('',*,*,#88,.F.);
#63=ORIENTED_EDGE('',*,*,#117,.F.);
#64=ORIENTED_EDGE('',*,*,#117,.T.);
#65=ORIENTED_EDGE('',*,*,#91,.T.);
#66=ORIENTED_EDGE('',*,*,#118,.F.);
#67=ORIENTED_EDGE('',*,*,#97,.F.);
#68=ORIENTED_EDGE('',*,*,#118,.T.);
#69=ORIENTED_EDGE('',*,*,#90,.T.);
#70=ORIENTED_EDGE('',*,*,#119,.F.);
#71=ORIENTED_EDGE('',*,*,#98,.F.);
#72=ORIENTED_EDGE('',*,*,#99,.T.);
#73=ORIENTED_EDGE('',*,*,#119,.T.);
#74=ORIENTED_EDGE('',*,*,#89,.F.);
#75=ORIENTED_EDGE('',*,*,#116,.F.);
#76=ORIENTED_EDGE('',*,*,#113,.T.);
#77=ORIENTED_EDGE('',*,*,#85,.F.);
#78=ORIENTED_EDGE('',*,*,#115,.F.);
#79=ORIENTED_EDGE('',*,*,#93,.F.);
#80=ORIENTED_EDGE('',*,*,#112,.T.);
#81=ORIENTED_EDGE('',*,*,#104,.F.);
#82=ORIENTED_EDGE('',*,*,#114,.F.);
#83=ORIENTED_EDGE('',*,*,#109,.T.);
#84=EDGE_CURVE('',#120,#121,#144,.T.);
#85=EDGE_CURVE('',#121,#122,#145,.T.);
#86=EDGE_CURVE('',#123,#122,#146,.T.);
#87=EDGE_CURVE('',#123,#120,#147,.T.);
#88=EDGE_CURVE('',#124,#125,#148,.T.);
#89=EDGE_CURVE('',#125,#126,#149,.T.);
#90=EDGE_CURVE('',#127,#126,#150,.T.);
#91=EDGE_CURVE('',#124,#127,#151,.T.);
#92=EDGE_CURVE('',#128,#129,#152,.T.);
#93=EDGE_CURVE('',#128,#130,#153,.T.);
#94=EDGE_CURVE('',#130,#131,#154,.T.);
#95=EDGE_CURVE('',#129,#131,#155,.T.);
#96=EDGE_CURVE('',#132,#133,#156,.T.);
#97=EDGE_CURVE('',#132,#134,#157,.T.);
#98=EDGE_CURVE('',#134,#135,#158,.T.);
#99=EDGE_CURVE('',#133,#135,#159,.T.);
#100=EDGE_CURVE('',#131,#136,#160,.T.);
#101=EDGE_CURVE('',#137,#136,#161,.T.);
#102=EDGE_CURVE('',#129,#137,#162,.T.);
#103=EDGE_CURVE('',#136,#138,#163,.T.);
#104=EDGE_CURVE('',#138,#139,#164,.T.);
#105=EDGE_CURVE('',#137,#139,#165,.T.);
#106=EDGE_CURVE('',#120,#140,#166,.T.);
#107=EDGE_CURVE('',#123,#141,#167,.T.);
#108=EDGE_CURVE('',#141,#140,#168,.T.);
#109=EDGE_CURVE('',#142,#143,#169,.T.);
#110=EDGE_CURVE('',#140,#142,#170,.T.);
#111=EDGE_CURVE('',#141,#143,#171,.T.);
#112=EDGE_CURVE('',#143,#139,#172,.T.);
#113=EDGE_CURVE('',#128,#122,#173,.T.);
#114=EDGE_CURVE('',#142,#138,#174,.T.);
#115=EDGE_CURVE('',#130,#121,#175,.T.);
#116=EDGE_CURVE('',#133,#125,#176,.T.);
#117=EDGE_CURVE('',#132,#124,#177,.T.);
#118=EDGE_CURVE('',#134,#127,#178,.T.);
#119=EDGE_CURVE('',#135,#126,#179,.T.);
#120=VERTEX_POINT('',#372);
#121=VERTEX_POINT('',#373);
#122=VERTEX_POINT('',#375);
#123=VERTEX_POINT('',#377);
#124=VERTEX_POINT('',#380);
#125=VERTEX_POINT('',#381);
#126=VERTEX_POINT('',#383);
#127=VERTEX_POINT('',#385);
#128=VERTEX_POINT('',#389);
#129=VERTEX_POINT('',#390);
#130=VERTEX_POINT('',#392);
#131=VERTEX_POINT('',#394);
#132=VERTEX_POINT('',#397);
#133=VERTEX_POINT('',#398);
#134=VERTEX_POINT('',#400);
#135=VERTEX_POINT('',#402);
#136=VERTEX_POINT('',#406);
#137=VERTEX_POINT('',#408);
#138=VERTEX_POINT('',#412);
#139=VERTEX_POINT('',#414);
#140=VERTEX_POINT('',#418);
#141=VERTEX_POINT('',#420);
#142=VERTEX_POINT('',#424);
#143=VERTEX_POINT('',#425);
#144=LINE('',#371,#180);
#145=LINE('',#374,#181);
#146=LINE('',#376,#182);
#147=LINE('',#378,#183);
#148=LINE('',#379,#184);
#149=LINE('',#382,#185);
#150=LINE('',#384,#186);
#151=LINE('',#386,#187);
#152=LINE('',#388,#188);
#153=LINE('',#391,#189);
#154=LINE('',#393,#190);
#155=LINE('',#395,#191);
#156=LINE('',#396,#192);
#157=LINE('',#399,#193);
#158=LINE('',#401,#194);
#159=LINE('',#403,#195);
#160=LINE('',#405,#196);
#161=LINE('',#407,#197);
#162=LINE('',#409,#198);
#163=LINE('',#411,#199);
#164=LINE('',#413,#200);
#165=LINE('',#415,#201);
#166=LINE('',#417,#202);
#167=LINE('',#419,#203);
#168=LINE('',#421,#204);
#169=LINE('',#423,#205);
#170=LINE('',#426,#206);
#171=LINE('',#427,#207);
#172=LINE('',#429,#208);
#173=LINE('',#430,#209);
#174=LINE('',#432,#210);
#175=LINE('',#433,#211);
#176=LINE('',#435,#212);
#177=LINE('',#436,#213);
#178=LINE('',#438,#214);
#179=LINE('',#440,#215);
#180=VECTOR('',#307,1000.);
#181=VECTOR('',#308,1000.);
#182=VECTOR('',#309,1000.);
#183=VECTOR('',#310,1000.);
#184=VECTOR('',#311,1000.);
#185=VECTOR('',#312,1000.);
#186=VECTOR('',#313,1000.);
#187=VECTOR('',#314,1000.);
#188=VECTOR('',#317,1000.);
#189=VECTOR('',#318,1000.);
#190=VECTOR('',#319,1000.);
#191=VECTOR('',#320,1000.);
#192=VECTOR('',#321,1000.);
#193=VECTOR('',#322,1000.);
#194=VECTOR('',#323,1000.);
#195=VECTOR('',#324,1000.);
#196=VECTOR('',#327,1000.);
#197=VECTOR('',#328,1000.);
#198=VECTOR('',#329,1000.);
#199=VECTOR('',#332,1000.);
#200=VECTOR('',#333,1000.);
#201=VECTOR('',#334,1000.);
#202=VECTOR('',#337,1000.);
#203=VECTOR('',#338,1000.);
#204=VECTOR('',#339,1000.);
#205=VECTOR('',#342,1000.);
#206=VECTOR('',#343,1000.);
#207=VECTOR('',#344,1000.);
#208=VECTOR('',#347,1000.);
#209=VECTOR('',#348,1000.);
#210=VECTOR('',#351,1000.);
#211=VECTOR('',#352,1000.);
#212=VECTOR('',#355,1000.);
#213=VECTOR('',#356,1000.);
#214=VECTOR('',#359,1000.);
#215=VECTOR('',#362,1000.);
#216=EDGE_LOOP('',(#12,#13,#14,#15));
#217=EDGE_LOOP('',(#16,#17,#18,#19));
#218=EDGE_LOOP('',(#20,#21,#22,#23));
#219=EDGE_LOOP('',(#24,#25,#26,#27));
#220=EDGE_LOOP('',(#28,#29,#30,#31));
#221=EDGE_LOOP('',(#32,#33,#34,#35));
#222=EDGE_LOOP('',(#36,#37,#38,#39));
#223=EDGE_LOOP('',(#40,#41,#42,#43));
#224=EDGE_LOOP('',(#44,#45,#46,#47,#48,#49,#50,#51));
#225=EDGE_LOOP('',(#52,#53,#54,#55,#56,#57,#58,#59));
#226=EDGE_LOOP('',(#60,#61,#62,#63));
#227=EDGE_LOOP('',(#64,#65,#66,#67));
#228=EDGE_LOOP('',(#68,#69,#70,#71));
#229=EDGE_LOOP('',(#72,#73,#74,#75));
#230=EDGE_LOOP('',(#76,#77,#78,#79));
#231=EDGE_LOOP('',(#80,#81,#82,#83));
#232=FACE_BOUND('',#216,.T.);
#233=FACE_BOUND('',#217,.T.);
#234=FACE_BOUND('',#218,.T.);
#235=FACE_BOUND('',#219,.T.);
#236=FACE_BOUND('',#220,.T.);
#237=FACE_BOUND('',#221,.T.);
#238=FACE_BOUND('',#222,.T.);
#239=FACE_BOUND('',#223,.T.);
#240=FACE_BOUND('',#224,.T.);
#241=FACE_BOUND('',#225,.T.);
#242=FACE_BOUND('',#226,.T.);
#243=FACE_BOUND('',#227,.T.);
#244=FACE_BOUND('',#228,.T.);
#245=FACE_BOUND('',#229,.T.);
#246=FACE_BOUND('',#230,.T.);
#247=FACE_BOUND('',#231,.T.);
#248=PLANE('',#289);
#249=PLANE('',#290);
#250=PLANE('',#291);
#251=PLANE('',#292);
#252=PLANE('',#293);
#253=PLANE('',#294);
#254=PLANE('',#295);
#255=PLANE('',#296);
#256=PLANE('',#297);
#257=PLANE('',#298);
#258=PLANE('',#299);
#259=PLANE('',#300);
#260=PLANE('',#301);
#261=PLANE('',#302);
#262=ADVANCED_FACE('',(#232,#233),#248,.F.);
#263=ADVANCED_FACE('',(#234,#235),#249,.F.);
#264=ADVANCED_FACE('',(#236),#250,.F.);
#265=ADVANCED_FACE('',(#237),#251,.F.);
#266=ADVANCED_FACE('',(#238),#252,.T.);
#267=ADVANCED_FACE('',(#239),#253,.T.);
#268=ADVANCED_FACE('',(#240),#254,.T.);
#269=ADVANCED_FACE('',(#241),#255,.F.);
#270=ADVANCED_FACE('',(#242),#256,.T.);
#271=ADVANCED_FACE('',(#243),#257,.F.);
#272=ADVANCED_FACE('',(#244),#258,.F.);
#273=ADVANCED_FACE('',(#245),#259,.T.);
#274=ADVANCED_FACE('',(#246),#260,.F.);
#275=ADVANCED_FACE('',(#247),#261,.F.);
#276=CLOSED_SHELL('',(#262,#263,#264,#265,#266,#267,#268,#269,#270,#271,
#272,#273,#274,#275));
#277=STYLED_ITEM('',(#278),#285);
#278=PRESENTATION_STYLE_ASSIGNMENT((#279));
#279=SURFACE_STYLE_USAGE(.BOTH.,#280);
#280=SURFACE_SIDE_STYLE('',(#281));
#281=SURFACE_STYLE_FILL_AREA(#282);
#282=FILL_AREA_STYLE('',(#283));
#283=FILL_AREA_STYLE_COLOUR('',#284);
#284=COLOUR_RGB('',0.647058823529412,0.647058823529412,0.647058823529412);
#285=MANIFOLD_SOLID_BREP('Part 3',#276);
#286=SHAPE_DEFINITION_REPRESENTATION(#450,#287);
#287=SHAPE_REPRESENTATION('Part 3',(#288),#445);
#288=AXIS2_PLACEMENT_3D('',#369,#303,#304);
#289=AXIS2_PLACEMENT_3D('',#370,#305,#306);
#290=AXIS2_PLACEMENT_3D('',#387,#315,#316);
#291=AXIS2_PLACEMENT_3D('',#404,#325,#326);
#292=AXIS2_PLACEMENT_3D('',#410,#330,#331);
#293=AXIS2_PLACEMENT_3D('',#416,#335,#336);
#294=AXIS2_PLACEMENT_3D('',#422,#340,#341);
#295=AXIS2_PLACEMENT_3D('',#428,#345,#346);
#296=AXIS2_PLACEMENT_3D('',#431,#349,#350);
#297=AXIS2_PLACEMENT_3D('',#434,#353,#354);
#298=AXIS2_PLACEMENT_3D('',#437,#357,#358);
#299=AXIS2_PLACEMENT_3D('',#439,#360,#361);
#300=AXIS2_PLACEMENT_3D('',#441,#363,#364);
#301=AXIS2_PLACEMENT_3D('',#442,#365,#366);
#302=AXIS2_PLACEMENT_3D('',#443,#367,#368);
#303=DIRECTION('',(0.,0.,1.));
#304=DIRECTION('',(1.,0.,0.));
#305=DIRECTION('',(7.96691610876669E-17,-1.,0.));
#306=DIRECTION('',(1.,7.96691610876669E-17,0.));
#307=DIRECTION('',(-1.,-7.96691610876669E-17,0.));
#308=DIRECTION('',(0.,0.,1.));
#309=DIRECTION('',(-1.,-7.96691610876669E-17,0.));
#310=DIRECTION('',(0.,0.,-1.));
#311=DIRECTION('',(-1.,-7.96691610876669E-17,0.));
#312=DIRECTION('',(0.,0.,-1.));
#313=DIRECTION('',(-1.,-7.96691610876669E-17,0.));
#314=DIRECTION('',(0.,0.,-1.));
#315=DIRECTION('',(0.,1.,0.));
#316=DIRECTION('',(0.,0.,1.));
#317=DIRECTION('',(1.,0.,0.));
#318=DIRECTION('',(0.,0.,-1.));
#319=DIRECTION('',(1.,0.,0.));
#320=DIRECTION('',(0.,0.,-1.));
#321=DIRECTION('',(-1.,0.,0.));
#322=DIRECTION('',(0.,0.,-1.));
#323=DIRECTION('',(-1.,0.,0.));
#324=DIRECTION('',(0.,0.,-1.));
#325=DIRECTION('',(1.,0.,0.));
#326=DIRECTION('',(0.,0.,-1.));
#327=DIRECTION('',(0.,-1.,0.));
#328=DIRECTION('',(0.,0.,-1.));
#329=DIRECTION('',(0.,-1.,0.));
#330=DIRECTION('',(0.,-1.,0.));
#331=DIRECTION('',(0.,0.,-1.));
#332=DIRECTION('',(-1.,0.,0.));
#333=DIRECTION('',(0.,0.,1.));
#334=DIRECTION('',(-1.,0.,0.));
#335=DIRECTION('',(1.,0.,0.));
#336=DIRECTION('',(0.,0.,-1.));
#337=DIRECTION('',(0.,-1.,0.));
#338=DIRECTION('',(0.,-1.,0.));
#339=DIRECTION('',(0.,0.,-1.));
#340=DIRECTION('',(1.59338322175333E-16,-1.,0.));
#341=DIRECTION('',(1.,1.59338322175333E-16,0.));
#342=DIRECTION('',(0.,0.,1.));
#343=DIRECTION('',(-1.,-1.59338322175333E-16,0.));
#344=DIRECTION('',(-1.,-1.59338322175333E-16,0.));
#345=DIRECTION('',(0.,0.,1.));
#346=DIRECTION('',(1.,0.,0.));
#347=DIRECTION('',(0.,1.,0.));
#348=DIRECTION('',(0.,1.,0.));
#349=DIRECTION('',(0.,0.,1.));
#350=DIRECTION('',(1.,0.,0.));
#351=DIRECTION('',(0.,1.,0.));
#352=DIRECTION('',(0.,1.,0.));
#353=DIRECTION('',(0.,0.,-1.));
#354=DIRECTION('',(-1.,0.,0.));
#355=DIRECTION('',(-7.96691610876669E-17,1.,0.));
#356=DIRECTION('',(-7.96691610876669E-17,1.,0.));
#357=DIRECTION('',(1.,7.96691610876669E-17,0.));
#358=DIRECTION('',(-7.96691610876669E-17,1.,0.));
#359=DIRECTION('',(-7.96691610876669E-17,1.,0.));
#360=DIRECTION('',(0.,0.,-1.));
#361=DIRECTION('',(-1.,0.,0.));
#362=DIRECTION('',(-7.96691610876669E-17,1.,0.));
#363=DIRECTION('',(1.,7.96691610876669E-17,0.));
#364=DIRECTION('',(-7.96691610876669E-17,1.,0.));
#365=DIRECTION('',(1.,0.,0.));
#366=DIRECTION('',(0.,1.,0.));
#367=DIRECTION('',(1.,0.,0.));
#368=DIRECTION('',(0.,1.,0.));
#369=CARTESIAN_POINT('',(0.,0.,0.));
#370=CARTESIAN_POINT('',(190.253354550805,-244.919091463089,14.51));
#371=CARTESIAN_POINT('',(190.253354550805,-244.919091463089,1.51));
#372=CARTESIAN_POINT('',(364.446073770523,-244.919091463089,1.51));
#373=CARTESIAN_POINT('',(189.08,-244.919091463089,1.51));
#374=CARTESIAN_POINT('',(189.08,-244.919091463089,14.51));
#375=CARTESIAN_POINT('',(189.08,-244.919091463089,14.51));
#376=CARTESIAN_POINT('',(190.253354550805,-244.919091463089,14.51));
#377=CARTESIAN_POINT('',(364.446073770523,-244.919091463089,14.51));
#378=CARTESIAN_POINT('',(364.446073770523,-244.919091463089,14.51));
#379=CARTESIAN_POINT('',(345.679146117589,-244.919091463089,8.83650349283483));
#380=CARTESIAN_POINT('',(350.687351889036,-244.919091463089,8.83650349283483));
#381=CARTESIAN_POINT('',(340.670940346143,-244.919091463089,8.83650349283483));
#382=CARTESIAN_POINT('',(340.670940346143,-244.919091463089,6.32901268841591));
#383=CARTESIAN_POINT('',(340.670940346143,-244.919091463089,3.82152188399699));
#384=CARTESIAN_POINT('',(345.679146117589,-244.919091463089,3.82152188399699));
#385=CARTESIAN_POINT('',(350.687351889036,-244.919091463089,3.82152188399699));
#386=CARTESIAN_POINT('',(350.687351889036,-244.919091463089,6.32901268841591));
#387=CARTESIAN_POINT('',(19.08,-247.92,14.51));
#388=CARTESIAN_POINT('',(19.08,-247.92,14.51));
#389=CARTESIAN_POINT('',(189.08,-247.92,14.51));
#390=CARTESIAN_POINT('',(361.44,-247.92,14.51));
#391=CARTESIAN_POINT('',(189.08,-247.92,14.51));
#392=CARTESIAN_POINT('',(189.08,-247.92,1.51));
#393=CARTESIAN_POINT('',(19.08,-247.92,1.51));
#394=CARTESIAN_POINT('',(361.44,-247.92,1.51));
#395=CARTESIAN_POINT('',(361.44,-247.92,14.51));
#396=CARTESIAN_POINT('',(19.08,-247.92,8.83650349283483));
#397=CARTESIAN_POINT('',(350.687351889036,-247.92,8.83650349283483));
#398=CARTESIAN_POINT('',(340.670940346143,-247.92,8.83650349283483));
#399=CARTESIAN_POINT('',(350.687351889036,-247.92,14.51));
#400=CARTESIAN_POINT('',(350.687351889036,-247.92,3.82152188399699));
#401=CARTESIAN_POINT('',(19.08,-247.92,3.82152188399699));
#402=CARTESIAN_POINT('',(340.670940346143,-247.92,3.82152188399699));
#403=CARTESIAN_POINT('',(340.670940346143,-247.92,14.51));
#404=CARTESIAN_POINT('',(361.44,-247.92,14.51));
#405=CARTESIAN_POINT('',(361.44,-247.92,1.51));
#406=CARTESIAN_POINT('',(361.44,-353.,1.51));
#407=CARTESIAN_POINT('',(361.44,-353.,14.51));
#408=CARTESIAN_POINT('',(361.44,-353.,14.51));
#409=CARTESIAN_POINT('',(361.44,-247.92,14.51));
#410=CARTESIAN_POINT('',(361.44,-353.,14.51));
#411=CARTESIAN_POINT('',(361.44,-353.,1.51));
#412=CARTESIAN_POINT('',(189.08,-353.,1.51));
#413=CARTESIAN_POINT('',(189.08,-353.,14.51));
#414=CARTESIAN_POINT('',(189.08,-353.,14.51));
#415=CARTESIAN_POINT('',(361.44,-353.,14.51));
#416=CARTESIAN_POINT('',(364.446073770523,-300.481855869293,14.51));
#417=CARTESIAN_POINT('',(364.446073770523,-300.481855869293,1.51));
#418=CARTESIAN_POINT('',(364.446073770523,-356.044620275497,1.51));
#419=CARTESIAN_POINT('',(364.446073770523,-300.481855869293,14.51));
#420=CARTESIAN_POINT('',(364.446073770523,-356.044620275497,14.51));
#421=CARTESIAN_POINT('',(364.446073770523,-356.044620275497,14.51));
#422=CARTESIAN_POINT('',(190.253354550805,-356.044620275497,14.51));
#423=CARTESIAN_POINT('',(189.08,-356.044620275497,14.51));
#424=CARTESIAN_POINT('',(189.08,-356.044620275497,1.51));
#425=CARTESIAN_POINT('',(189.08,-356.044620275497,14.51));
#426=CARTESIAN_POINT('',(190.253354550805,-356.044620275497,1.51));
#427=CARTESIAN_POINT('',(190.253354550805,-356.044620275497,14.51));
#428=CARTESIAN_POINT('',(190.253354550805,-300.481855869293,14.51));
#429=CARTESIAN_POINT('',(189.08,-300.481855869293,14.51));
#430=CARTESIAN_POINT('',(189.08,-300.481855869293,14.51));
#431=CARTESIAN_POINT('',(190.253354550805,-300.481855869293,1.51));
#432=CARTESIAN_POINT('',(189.08,-300.481855869293,1.51));
#433=CARTESIAN_POINT('',(189.08,-300.481855869293,1.51));
#434=CARTESIAN_POINT('',(345.679146117589,-249.919091463089,8.83650349283483));
#435=CARTESIAN_POINT('',(340.670940346143,-249.919091463089,8.83650349283483));
#436=CARTESIAN_POINT('',(350.687351889036,-249.919091463089,8.83650349283483));
#437=CARTESIAN_POINT('',(350.687351889036,-249.919091463089,6.32901268841591));
#438=CARTESIAN_POINT('',(350.687351889036,-249.919091463089,3.82152188399699));
#439=CARTESIAN_POINT('',(345.679146117589,-249.919091463089,3.82152188399699));
#440=CARTESIAN_POINT('',(340.670940346143,-249.919091463089,3.82152188399699));
#441=CARTESIAN_POINT('',(340.670940346143,-249.919091463089,6.32901268841591));
#442=CARTESIAN_POINT('',(189.08,-300.46,8.01));
#443=CARTESIAN_POINT('',(189.08,-300.46,8.01));
#444=MECHANICAL_DESIGN_GEOMETRIC_PRESENTATION_REPRESENTATION('',(#277),
#445);
#445=(
GEOMETRIC_REPRESENTATION_CONTEXT(3)
GLOBAL_UNCERTAINTY_ASSIGNED_CONTEXT((#446))
GLOBAL_UNIT_ASSIGNED_CONTEXT((#449,#448,#447))
REPRESENTATION_CONTEXT('Part 3','TOP_LEVEL_ASSEMBLY_PART')
);
#446=UNCERTAINTY_MEASURE_WITH_UNIT(LENGTH_MEASURE(1.E-5),#449,
'DISTANCE_ACCURACY_VALUE','Maximum Tolerance applied to model');
#447=(
NAMED_UNIT(*)
SI_UNIT($,.STERADIAN.)
SOLID_ANGLE_UNIT()
);
#448=(
NAMED_UNIT(*)
PLANE_ANGLE_UNIT()
SI_UNIT($,.RADIAN.)
);
#449=(
LENGTH_UNIT()
NAMED_UNIT(*)
SI_UNIT(.MILLI.,.METRE.)
);
#450=PRODUCT_DEFINITION_SHAPE('','',#451);
#451=PRODUCT_DEFINITION('','',#453,#452);
#452=PRODUCT_DEFINITION_CONTEXT('',#459,'design');
#453=PRODUCT_DEFINITION_FORMATION_WITH_SPECIFIED_SOURCE('','',#455,
 .NOT_KNOWN.);
#454=PRODUCT_RELATED_PRODUCT_CATEGORY('','',(#455));
#455=PRODUCT('Part 3','Part 3','Part 3',(#457));
#456=PRODUCT_CATEGORY('','');
#457=PRODUCT_CONTEXT('',#459,'mechanical');
#458=APPLICATION_PROTOCOL_DEFINITION('international standard',
'ap242_managed_model_based_3d_engineering',2020,#459);
#459=APPLICATION_CONTEXT('managed model based 3d engineering');
ENDSEC;
END-ISO-10303-21;
